<svg xmlns="http://www.w3.org/2000/svg" width="32" height="32">
    <path style="stroke:none;fill-rule:nonzero;fill:#000;fill-opacity:1" d="M14.922 3c-.348 0-.695.078-1.027.2L4.078 7.265c-1.36.562-2.012 2.12-1.453 3.468l6.613 15.934a2.665 2.665 0 0 0 2.414 1.664c.348 0 .707-.039 1.055-.2l9.828-4.066a2.685 2.685 0 0 0 1.637-2.398A2.932 2.932 0 0 0 24 20.602L17.332 4.668c-.387-1.027-1.371-1.656-2.41-1.668m4.637 0 4.601 11.133V5.668A2.669 2.669 0 0 0 21.492 3m5.348 2.055v12.039l3.238-7.813a2.656 2.656 0 0 0-1.453-3.469m-13.703-.187 6.637 16.027-9.852 4.082L5.067 9.72"/>
</svg>
